<?xml version="1.0" encoding="UTF-8"?>
<svg xmlns="http://www.w3.org/2000/svg" xmlns:xlink="http://www.w3.org/1999/xlink" width="16px" height="16px" viewBox="0 0 16 16" version="1.1">
<g id="surface1">
<path style=" stroke:none;fill-rule:nonzero;fill:rgb(0%,0%,0%);fill-opacity:1;" d="M 5.695312 0.328125 C 3.316406 1.113281 1.671875 2.582031 0.683594 4.785156 C -0.152344 6.582031 -0.0742188 9.570312 0.808594 11.292969 C 3.898438 17.164062 12.074219 17.113281 14.988281 11.191406 C 15.824219 9.492188 15.824219 6.203125 14.960938 4.558594 C 14.152344 3.011719 12.785156 1.59375 11.316406 0.835938 C 9.796875 0.0742188 7.191406 -0.152344 5.695312 0.328125 Z M 8.609375 2.859375 C 8.609375 3.316406 8.480469 3.824219 8.304688 4 C 8.074219 4.226562 8.125 4.304688 8.558594 4.304688 C 8.859375 4.304688 9.339844 4.53125 9.621094 4.808594 C 9.898438 5.089844 10.304688 5.316406 10.507812 5.316406 C 10.707031 5.316406 10.988281 5.089844 11.140625 4.808594 C 11.441406 4.226562 12.152344 4.125 12.152344 4.683594 C 12.152344 5.089844 11.292969 5.644531 11.039062 5.390625 C 10.960938 5.316406 10.886719 5.46875 10.886719 5.773438 C 10.886719 6.328125 9.898438 6.785156 9.390625 6.480469 C 9.242188 6.378906 9.0625 6.609375 8.960938 6.960938 C 8.808594 7.519531 8.683594 7.59375 7.59375 7.59375 C 6.074219 7.59375 5.773438 7.191406 6.886719 6.707031 L 7.722656 6.355469 L 6.960938 6.328125 C 6.023438 6.328125 5.695312 6.101562 5.46875 5.390625 C 5.265625 4.707031 6.074219 4.074219 7.214844 4.023438 C 7.621094 4 7.796875 3.949219 7.570312 3.875 C 7.089844 3.746094 6.785156 2.9375 7.011719 2.378906 C 7.089844 2.175781 7.46875 2.023438 7.875 2.023438 C 8.53125 2.023438 8.609375 2.101562 8.609375 2.859375 Z M 6.707031 8.609375 C 6.507812 9.242188 6.960938 9.265625 7.316406 8.660156 C 7.570312 8.253906 7.621094 8.253906 7.949219 8.660156 C 8.355469 9.214844 8.707031 9.265625 8.53125 8.757812 C 8.457031 8.558594 8.558594 8.328125 8.785156 8.253906 C 9.519531 7.949219 11.898438 10.859375 11.898438 12.023438 C 11.898438 12.253906 12.125 12.507812 12.40625 12.582031 C 13.191406 12.785156 13.011719 13.164062 12.125 13.164062 C 11.519531 13.164062 11.367188 13.0625 11.492188 12.785156 C 11.59375 12.507812 11.441406 12.40625 10.910156 12.40625 C 10.328125 12.40625 10.125 12.226562 9.746094 11.417969 C 9.492188 10.808594 8.988281 10.253906 8.457031 9.976562 L 7.59375 9.519531 L 6.101562 10.988281 C 4.9375 12.125 4.480469 12.429688 4.050781 12.328125 C 3.621094 12.226562 3.542969 12.277344 3.671875 12.683594 C 3.796875 13.0625 3.695312 13.164062 3.316406 13.164062 C 2.785156 13.164062 2.632812 12.886719 2.988281 12.558594 C 3.089844 12.457031 3.164062 12.253906 3.164062 12.125 C 3.164062 11.59375 5.976562 8.125 6.40625 8.101562 C 6.757812 8.101562 6.835938 8.226562 6.707031 8.609375 Z M 6.707031 8.609375 "/>
</g>
</svg>
